<svg width="842" height="800" viewBox="0 0 842 800" fill="none" xmlns="http://www.w3.org/2000/svg">
<g clip-path="url(#clip0_1_97)">
<path d="M559.26 85.2193L555.55 85.2593L555.22 62.3193C555.215 62.0433 554.982 61.8193 554.7 61.8193L423.68 61.8293L358.33 62.0193C331.51 61.9993 304.57 61.9293 277.51 61.8093C271.017 61.7763 264.35 61.7763 257.51 61.8093C221.263 61.9893 185.013 61.9893 148.76 61.8093C142.34 61.7823 135.673 61.7863 128.76 61.8193C106.613 61.9463 84.4704 61.9493 62.3304 61.8293C62.3284 61.8293 62.3274 61.8293 62.3254 61.8293C62.0514 61.8263 61.8234 62.0453 61.8204 62.3143C61.8204 62.3143 61.8204 62.3173 61.8204 62.3193C61.6134 102.192 61.5104 142.069 61.5104 181.949C61.5104 184.356 61.5774 188.392 61.7104 194.059C61.8034 198.099 61.8204 202.142 61.7604 206.189C61.6534 213.776 61.6374 219.826 61.7104 224.339C61.8774 234.312 61.8304 244.282 61.5704 254.249C61.5374 255.469 61.5804 256.969 61.7004 258.749C61.8074 260.249 61.8504 261.752 61.8304 263.259C61.5304 292.839 61.3774 322.422 61.3704 352.009C61.3504 480.342 61.4804 608.669 61.7604 736.989C61.7604 737.137 61.8824 737.259 62.0304 737.259H172.82C172.82 737.259 172.822 737.259 172.824 737.259C173.201 737.261 173.51 737.572 173.51 737.949V760.699C173.51 761.006 173.763 761.259 174.07 761.259L249.01 761.299C249.543 762.572 249.627 763.879 249.26 765.219L174.18 765.009C173.812 765.009 173.51 765.311 173.51 765.679V798.709C173.51 799.148 173.144 799.509 172.7 799.509H1.05039C0.620394 799.509 0.265393 799.159 0.260393 798.729C0.0803931 759.296 -0.006609 720.139 0.000391 681.259C0.007391 677.226 0.0733956 670.556 0.200396 661.249C0.320396 652.256 0.320396 643.262 0.200396 634.269C0.0803956 625.389 0.0233898 618.722 0.0303898 614.269C0.23739 481.849 0.263392 349.429 0.110392 217.009C0.0233916 145.676 0.0603922 74.3423 0.220392 3.00932C0.220392 2.28232 0.187394 1.55632 0.120394 0.829321C0.119394 0.822321 0.119394 0.815318 0.119394 0.807318C0.108394 0.550318 0.307397 0.329319 0.559397 0.319319C0.566397 0.319319 0.573393 0.319319 0.580393 0.319319C205.14 0.246319 409.7 0.279325 614.26 0.419325C615.527 0.419325 616.767 0.286323 617.98 0.0193232C618.009 0.0133232 618.038 0.00832329 618.068 0.00532329C618.531 -0.0466767 618.954 0.288321 619.005 0.746321C619.008 0.777321 619.01 0.808323 619.01 0.839323V61.0693C619.01 61.0693 619.01 61.0713 619.01 61.0733C619.008 61.4503 618.697 61.7593 618.32 61.7593H559.76C559.486 61.7593 559.26 61.9853 559.26 62.2593V85.2193Z" fill="#E43E22"/>
<path d="M290.76 799.469L290.79 737.469L290.84 649.279L290.76 577.699C290.76 577.322 291.069 577.011 291.446 577.009C291.448 577.009 291.45 577.009 291.45 577.009L319.19 576.949C319.47 576.949 319.7 576.723 319.7 576.449L319.64 474.749C319.74 471.869 319.753 468.979 319.68 466.079C319.567 461.586 319.51 458.699 319.51 457.419C319.53 440.366 319.517 423.312 319.47 406.259L319.51 263.549L323.51 263.539L323.36 406.329L323.3 474.759L323.26 576.719C323.26 577.026 323.517 577.279 323.83 577.279L353.47 577.259L353.57 736.689C353.57 736.969 353.796 737.199 354.07 737.199L418.05 737.259C418.052 737.259 418.053 737.259 418.055 737.259C418.406 737.257 418.693 736.966 418.69 736.615C418.69 736.613 418.69 736.611 418.69 736.609C418.503 719.882 418.433 703.072 418.48 686.179C418.487 683.972 418.567 679.196 418.72 671.849C418.82 667.069 418.837 662.289 418.77 657.509C418.65 649.069 418.6 642.402 418.62 637.509C418.653 629.262 418.617 617.179 418.51 601.259C418.423 588.086 418.507 546.166 418.76 475.499C418.759 475.174 418.979 474.904 419.25 474.899L422.51 474.799L422.55 649.259L422.51 736.389C422.51 736.866 422.903 737.259 423.38 737.259H777.99C778.379 737.259 778.7 736.938 778.7 736.549L778.76 62.1693V62.1683C778.76 61.9113 778.548 61.6993 778.29 61.6993H686.57C686.296 61.6993 686.07 61.4693 686.07 61.1893V0.829338C686.07 0.549338 686.3 0.319336 686.58 0.319336L840.64 0.259338C841.117 0.259338 841.51 0.652341 841.51 1.12934V799.139C841.51 799.342 841.343 799.509 841.14 799.509C657.72 799.149 474.26 799.136 290.76 799.469Z" fill="#771616"/>
<path d="M423.68 61.8293L422.97 147.969L357.83 147.999L358.33 62.0193L423.68 61.8293Z" fill="#3D0000"/>
<path d="M278.11 126.939C290.421 126.939 300.4 116.96 300.4 104.649C300.4 92.3389 290.421 82.3594 278.11 82.3594C265.8 82.3594 255.82 92.3389 255.82 104.649C255.82 116.96 265.8 126.939 278.11 126.939Z" fill="#E39236"/>
<path d="M555.55 85.2593L559.26 85.2194C565.693 85.0794 571.007 87.2793 575.2 91.8193C577.833 94.6723 579.61 97.9394 580.53 101.619C581.377 105.006 581.303 108.589 580.31 112.369C577.69 122.342 570.673 127.986 559.26 129.299L555.55 129.259C548.01 127.659 542.6 123.639 539.32 117.199C537.12 112.872 536.4 108.409 537.16 103.809C537.9 99.3624 539.773 95.4963 542.78 92.2093C546.067 88.6223 550.323 86.3063 555.55 85.2593Z" fill="#E54024"/>
<path d="M555.55 129.259L559.26 129.299V147.229C559.26 147.657 559.612 148.009 560.04 148.009H689.99C690.277 148.009 690.515 148.242 690.52 148.529C690.58 152.016 690.613 155.592 690.62 159.259C690.747 322.366 690.773 485.496 690.7 648.649C690.7 649.121 690.312 649.509 689.84 649.509L627.35 649.239L627.38 474.789L627.48 406.379L627.51 211.899C627.51 211.548 627.221 211.259 626.87 211.259L211.48 211.319C210.948 211.319 210.51 211.757 210.51 212.289L210.76 406.219L148.32 406.439C148.318 406.439 148.317 406.439 148.315 406.439C148.046 406.442 147.823 406.223 147.82 405.954C147.82 405.952 147.82 405.951 147.82 405.949L147.76 148.729V148.726C147.761 148.332 148.086 148.009 148.48 148.009L357.83 147.999L422.97 147.969L554.82 147.829C555.085 147.829 555.305 147.6 555.31 147.319L555.55 129.259Z" fill="#771616"/>
<path d="M106.03 242.169C119.224 242.169 129.92 231.473 129.92 218.279C129.92 205.085 119.224 194.389 106.03 194.389C92.8363 194.389 82.1404 205.085 82.1404 218.279C82.1404 231.473 92.8363 242.169 106.03 242.169Z" fill="#E39236"/>
<path d="M627.48 406.379C597.773 406.432 510.367 406.476 365.26 406.509C345.7 406.516 331.733 406.456 323.36 406.329L323.51 263.539L356.91 263.509C357.205 263.511 357.465 263.301 357.53 263.009C358.07 260.649 357.567 259.539 356.02 259.679C355.407 259.732 355.063 259.759 354.99 259.759H292.16C291.66 259.758 291.228 260.125 291.15 260.619C290.837 262.572 291.307 263.482 292.56 263.349C293.12 263.282 293.427 263.249 293.48 263.249C302.16 263.122 310.837 263.222 319.51 263.549L319.47 406.259C296.143 406.459 261.907 406.542 216.76 406.509C214.067 406.509 212.067 406.412 210.76 406.219L210.51 212.289C210.51 211.757 210.948 211.319 211.48 211.319L626.87 211.259C627.221 211.259 627.51 211.548 627.51 211.899L627.48 406.379Z" fill="#E43E22"/>
<path d="M733.09 454.329C746.345 454.329 757.09 443.584 757.09 430.329C757.09 417.075 746.345 406.329 733.09 406.329C719.836 406.329 709.09 417.075 709.09 430.329C709.09 443.584 719.836 454.329 733.09 454.329Z" fill="#E54024"/>
<path d="M319.64 474.749L319.7 576.449C319.7 576.723 319.47 576.949 319.19 576.949L291.45 577.009C291.072 577.009 290.761 577.32 290.76 577.698L290.84 649.279C284.54 649.532 278.29 649.606 272.09 649.499C261.37 649.319 255.977 649.229 255.91 649.229C241.61 649.189 230.413 649.262 222.32 649.449C217.42 649.562 213.567 649.486 210.76 649.219C210.6 645.359 210.517 639.122 210.51 630.509C210.463 564.102 210.553 512.192 210.78 474.779L319.64 474.749Z" fill="#E43E22"/>
<path d="M353.47 577.259L323.83 577.279C323.517 577.279 323.26 577.026 323.26 576.719L323.3 474.759H352.9C353.235 474.759 353.51 475.034 353.51 475.369L353.47 577.259Z" fill="#E53E21"/>
<path d="M210.78 474.779C210.553 512.192 210.463 564.102 210.51 630.509C210.517 639.122 210.6 645.359 210.76 649.219L148.32 649.449C148.318 649.449 148.317 649.449 148.315 649.449C148.047 649.452 147.823 649.224 147.82 648.944C147.82 648.942 147.82 648.941 147.82 648.939L147.76 475.319C147.76 475.012 148.013 474.759 148.32 474.759L210.78 474.779Z" fill="#771616"/>
<path d="M422.51 474.799L627.38 474.789L627.35 649.239L422.55 649.259L422.51 474.799Z" fill="#363736"/>
<path d="M290.79 737.469L290.76 799.469C277.247 800.102 263.727 800.226 250.2 799.839C249.92 799.828 249.695 799.594 249.69 799.309L249.26 765.219C249.627 763.879 249.543 762.572 249.01 761.299C249.577 753.966 249.733 746.282 249.48 738.249C249.48 738.242 249.48 738.235 249.48 738.229C249.474 737.708 249.889 737.274 250.4 737.269C250.406 737.269 250.413 737.269 250.42 737.269L290.79 737.469Z" fill="#3D0000"/>
</g>
<defs>
<clipPath id="clip0_1_97">
<rect width="842" height="800" fill="white"/>
</clipPath>
</defs>
</svg>
