<?xml version="1.0" encoding="UTF-8" standalone="no"?>
<!DOCTYPE svg PUBLIC "-//W3C//DTD SVG 1.1//EN" "http://www.w3.org/Graphics/SVG/1.1/DTD/svg11.dtd">
<svg width="100%" height="100%" viewBox="0 0 551 552" version="1.1" xmlns="http://www.w3.org/2000/svg" xmlns:xlink="http://www.w3.org/1999/xlink" xml:space="preserve" xmlns:serif="http://www.serif.com/" style="fill-rule:evenodd;clip-rule:evenodd;stroke-linejoin:round;stroke-miterlimit:2;">
    <path d="M282,0.5L550.5,0.5L550.5,273.5L462.5,273.5L462.5,313L539.5,313L539.5,551.5L308,551.5L308,507.5L252,507.5L252,548.5L0.5,548.5L0.5,313L105,313L105,279L6.5,279L6.5,6.5L234.5,6.5L234.5,77L282,77L282,0.5ZM283,1.5L283,78L233.5,78L233.5,7.5L7.5,7.5L7.5,278L106,278L106,314L1.5,314L1.5,547.5L251,547.5L251,506.5L309,506.5L309,550.5L538.5,550.5L538.5,314L461.5,314L461.5,272.5L549.5,272.5L549.5,1.5L283,1.5ZM305,24L527,24L527,249L461.5,249L461.5,202.5L439,202.5L439,249L380,249L380,176.5L305,176.5L305,100L353,100L353,78L305,78L305,24ZM306,25L306,77L354,77L354,101L306,101L306,175.5L381,175.5L381,248L438,248L438,201.5L462.5,201.5L462.5,248L526,248L526,25L306,25ZM30.5,30L210.5,30L210.5,78L173,78L173,100L210.5,100L210.5,144.5L233.5,144.5L233.5,100L283,100L283,176.5L188.5,176.5L188.5,278L218,278L218,206.5L283,206.5L283,272.5L349,272.5L349,302.5L380,302.5L380,272.5L439,272.5L439,314L309,314L309,484L251,484L251,314L136,314L136,278L159,278L159,255.5L136,255.5L136,221.5L106,221.5L106,255.5L30.5,255.5L30.5,30ZM31.5,31L31.5,254.5L105,254.5L105,220.5L137,220.5L137,254.5L160,254.5L160,279L137,279L137,313L252,313L252,483L308,483L308,313L438,313L438,273.5L381,273.5L381,303.5L348,303.5L348,273.5L282,273.5L282,207.5L219,207.5L219,279L187.5,279L187.5,175.5L282,175.5L282,101L234.5,101L234.5,145.5L209.5,145.5L209.5,101L172,101L172,77L209.5,77L209.5,31L31.5,31ZM305,206.5L349,206.5L349,249L305,249L305,206.5ZM306,207.5L306,248L348,248L348,207.5L306,207.5ZM328.5,333.5L439,333.5L439,400.5L461.5,400.5L461.5,333.5L519.5,333.5L519.5,532L328.5,532L328.5,506.5L361.5,506.5L361.5,484L328.5,484L328.5,333.5ZM329.5,334.5L329.5,483L362.5,483L362.5,507.5L329.5,507.5L329.5,531L518.5,531L518.5,334.5L462.5,334.5L462.5,401.5L438,401.5L438,334.5L329.5,334.5ZM32.5,345L106,345L106,374L136,374L136,345L220.5,345L220.5,484L181,484L181,506.5L220.5,506.5L220.5,517.5L32.5,517.5L32.5,345ZM33.5,346L33.5,516.5L219.5,516.5L219.5,507.5L180,507.5L180,483L219.5,483L219.5,346L137,346L137,375L105,375L105,346L33.5,346Z"/>
    <path d="M283,1.5L549.5,1.5L549.5,272.5L461.5,272.5L461.5,314L538.5,314L538.5,550.5L309,550.5L309,506.5L251,506.5L251,547.5L1.5,547.5L1.5,314L106,314L106,278L7.5,278L7.5,7.5L233.5,7.5L233.5,78L283,78L283,1.5ZM32.5,345L32.5,517.5L220.5,517.5L220.5,506.5L181,506.5L181,484L220.5,484L220.5,345L136,345L136,374L106,374L106,345L32.5,345ZM30.5,30L30.5,255.5L106,255.5L106,221.5L136,221.5L136,255.5L159,255.5L159,278L136,278L136,314L251,314L251,484L309,484L309,314L439,314L439,272.5L380,272.5L380,302.5L349,302.5L349,272.5L283,272.5L283,206.5L218,206.5L218,278L188.5,278L188.5,176.5L283,176.5L283,100L233.5,100L233.5,144.5L210.5,144.5L210.5,100L173,100L173,78L210.5,78L210.5,30L30.5,30ZM305,206.5L305,249L349,249L349,206.5L305,206.5ZM305,24L305,78L353,78L353,100L305,100L305,176.5L380,176.5L380,249L439,249L439,202.5L461.5,202.5L461.5,249L527,249L527,24L305,24ZM328.5,333.5L328.5,484L361.5,484L361.5,506.5L328.5,506.5L328.5,532L519.5,532L519.5,333.5L461.5,333.5L461.5,400.5L439,400.5L439,333.5L328.5,333.5Z"/>
</svg>
